<svg class="svg-icon" viewBox="0 0 1024 1024" version="1.1" xmlns="http://www.w3.org/2000/svg"><path d="M719.004611 602.991364 719.000518 602.988294 718.999494 602.991364Z"  /><path d="M634.528638 688.830381l61.395302-37.338397c8.756431-5.324262 13.416568-14.823614 12.980639-24.38641l0.001023 0c-0.099261-6.776334 3.906983-15.188934 6.754844-20.291139 0.917906-1.497097 2.114151-2.611477 2.99931-4.125971 0.032746-0.048095 0.334621 0.290619 0.341784 0.298805 41.021276-69.77925 47.526433-159.411663 9.857509-238.451834-60.443627-126.824477-212.399481-180.830485-339.223958-120.387881-126.824477 60.442604-180.709735 212.157981-120.266108 338.982458 37.730323 79.167061 111.025653 129.832997 191.658088 142.069693l-0.019443-0.021489c0 0 15.232936 2.152013 17.254989 15.431457l-0.004093-0.00614c0.563842 3.245927 1.722224 6.439666 3.53757 9.42465 7.281847 11.974729 22.367427 16.288988 34.751478 10.387581 0.828878-0.394996 1.645476-0.838088 2.447748-1.325182l109.225657-66.423829C630.345362 691.415252 632.449279 690.13612 634.528638 688.830381z"  /><path d="M750.674914 689.417759c-7.768941-12.774955-24.419156-16.833387-37.20025-9.064446L536.542976 787.951913c-12.774955 7.768941-16.83441 24.424272-9.064446 37.20025 7.281847 11.973706 22.36845 16.290011 34.752502 10.388605 0.829901-0.396019 1.6465-0.837064 2.447748-1.324158l176.932712-107.596554C754.386446 718.850092 758.444878 702.19476 750.674914 689.417759z"  /><path d="M755.037269 757.664096 600.6132 851.545276c-1.733481 1.131777-2.096754 2.347464-1.393743 3.821025 1.194198 2.505054 4.028757 2.629897 4.668323 2.677992l0.148379 0.11768 0.002047 0 61.196781 3.238764c10.473539 0.573051 23.950482-5.904477 30.101575-14.400988l61.372789-84.797291c0.001023-0.002047 2.363837-3.225461 0.919952-4.665253C756.8915 756.801449 755.890706 757.138116 755.037269 757.664096z"  /><path d="M332.599074 188.899254c6.713912 14.086833 23.579021 20.064988 37.665855 13.351076 14.086833-6.713912 20.064988-23.579021 13.351076-37.665855l-18.23634-38.262442c-6.713912-14.087856-23.579021-20.064988-37.665855-13.352099-14.087856 6.713912-20.064988 23.579021-13.352099 37.665855L332.599074 188.899254z"  /><path d="M811.321156 355.943758l38.262442-18.235316c14.087856-6.713912 20.064988-23.579021 13.352099-37.666878-6.713912-14.087856-23.579021-20.066011-37.664831-13.351076l-38.263465 18.235316c-14.086833 6.713912-20.064988 23.579021-13.351076 37.666878C780.369214 356.679515 797.234323 362.65767 811.321156 355.943758z"  /><path d="M190.738136 589.101006l-38.263465 18.235316c-14.086833 6.713912-20.064988 23.579021-13.351076 37.666878s23.579021 20.064988 37.665855 13.351076l38.263465-18.23634c14.086833-6.713912 20.064988-23.579021 13.351076-37.665855C221.690078 588.366272 204.824969 582.387094 190.738136 589.101006z"  /><path d="M861.696474 570.386782l-39.950897-14.161534c-14.710027-5.208629-30.859845 2.487657-36.077683 17.194614-5.211698 14.712073 2.483564 30.859845 17.193591 36.077683l39.950897 14.161534c7.355525 2.604314 15.07023 1.985214 21.598924-1.12666 6.529717-3.111874 11.869329-8.713452 14.478759-16.066931C884.102786 591.753415 876.4065 575.603597 861.696474 570.386782z"  /><path d="M180.306552 388.812353c7.352455 2.606361 15.066137 1.987261 21.595854-1.125637s11.869329-8.713452 14.477736-16.070001c5.213745-14.709003-2.484587-30.860868-17.196661-36.072567l-39.948851-14.158465c-14.70491-5.212722-30.857798 2.482541-36.072567 17.195637-5.213745 14.709003 2.483564 30.860868 17.195637 36.072567L180.306552 388.812353z"  /><path d="M400.12398 757.173932c-14.71105-5.209652-30.858822 2.486634-36.077683 17.193591l-14.161534 39.951921c-5.212722 14.712073 2.483564 30.860868 17.193591 36.077683 7.355525 2.605338 15.069207 1.985214 21.599947-1.12666 6.529717-3.111874 11.868305-8.713452 14.477736-16.067954l14.161534-39.950897C422.530292 778.539542 414.834007 762.390747 400.12398 757.173932z"  /><path d="M601.924055 187.886181c7.355525 2.604314 15.069207 1.985214 21.598924-1.12666 6.529717-3.111874 11.869329-8.713452 14.477736-16.066931l14.162558-39.951921c5.212722-14.712073-2.483564-30.859845-17.194614-36.077683-14.71105-5.208629-30.858822 2.486634-36.077683 17.194614l-14.161534 39.950897C579.51672 166.520571 587.214029 182.668343 601.924055 187.886181z"  /></svg>